<svg width="24" height="24" viewBox="0 0 24 24" fill="none" xmlns="http://www.w3.org/2000/svg">
    <path d="M2 2L22 22" stroke="currentColor" stroke-width="1.8" stroke-linecap="round" />
    <path d="M9.9 4.6C10.6 4.2 11.3 4 12 4C17.1 4 21.1 7.8 23 12C22.2 13.9 21 15.5 19.4 16.8"
        stroke="currentColor" stroke-width="1.8" stroke-linecap="round" stroke-linejoin="round" />
    <path d="M14.1 19.4C13.4 19.8 12.7 20 12 20C6.9 20 2.9 16.2 1 12C1.8 10.1 3 8.5 4.6 7.2"
        stroke="currentColor" stroke-width="1.8" stroke-linecap="round" stroke-linejoin="round" />
    <path
        d="M9.5 9.5C8.8 10.2 8.8 11.3 9.5 12.1C10.2 12.8 11.3 12.8 12.1 12.1C12.8 11.4 12.8 10.3 12.1 9.5"
        stroke="currentColor" stroke-width="1.8" stroke-linecap="round" stroke-linejoin="round" />
</svg>