<svg width="24" height="24" viewBox="0 0 24 24" fill="none" xmlns="http://www.w3.org/2000/svg">
    <path
        d="M22.5 12.2C22.5 11.4 22.4 10.8 22.3 10.1H12V14.1H17.9C17.6 15.5 16.8 16.6 15.7 17.4V20H19.1C21.1 18.2 22.5 15.6 22.5 12.2Z"
        fill="#4285F4" />
    <path
        d="M12 23C14.9 23 17.4 22.1 19.1 20L15.7 17.4C14.8 18 13.5 18.4 12 18.4C9.2 18.4 6.8 16.6 6 14.1H2.5V16.8C4.2 20.2 7.8 23 12 23Z"
        fill="#34A853" />
    <path
        d="M6 14.1C5.8 13.5 5.7 12.8 5.7 12C5.7 11.2 5.8 10.5 6 9.9V7.2H2.5C1.8 8.7 1.5 10.3 1.5 12C1.5 13.7 1.8 15.3 2.5 16.8L6 14.1Z"
        fill="#FBBC05" />
    <path
        d="M12 5.6C13.6 5.6 15 6.1 16 7L19.2 3.8C17.4 2.1 14.9 1 12 1C7.8 1 4.2 3.8 2.5 7.2L6 9.9C6.8 7.4 9.2 5.6 12 5.6Z"
        fill="#EA4335" />
</svg>